<mxfile host="app.diagrams.net" modified="2023-08-22T02:40:49.510Z" agent="Mozilla/5.0 (X11; Ubuntu; Linux x86_64; rv:108.0) Gecko/20100101 Firefox/108.0" etag="5vm8MOy6AV9VuvXxvpyf" version="21.6.8" type="github">
  <diagram name="Page-1" id="F3d6LdgK1UDITYYSOOqR">
    <mxGraphModel dx="1058" dy="615" grid="1" gridSize="10" guides="1" tooltips="1" connect="1" arrows="1" fold="1" page="1" pageScale="1" pageWidth="850" pageHeight="1100" math="0" shadow="0">
      <root>
        <mxCell id="0" />
        <mxCell id="1" parent="0" />
        <mxCell id="aBft6ZfbLMWUGfRQ3VPs-7" value="" style="rounded=0;whiteSpace=wrap;html=1;rotation=-90;" vertex="1" parent="1">
          <mxGeometry x="155" y="115" width="508.67" height="364.69" as="geometry" />
        </mxCell>
        <mxCell id="aBft6ZfbLMWUGfRQ3VPs-8" value="PLAYER2(USER)" style="shape=umlActor;verticalLabelPosition=bottom;verticalAlign=top;html=1;outlineConnect=0;fillColor=none;" vertex="1" parent="1">
          <mxGeometry x="668.67" y="250.00000000000003" width="80" height="132.35" as="geometry" />
        </mxCell>
        <mxCell id="aBft6ZfbLMWUGfRQ3VPs-10" value="RANDOM ANGKA" style="ellipse;whiteSpace=wrap;html=1;" vertex="1" parent="1">
          <mxGeometry x="304.34" y="130" width="210" height="90" as="geometry" />
        </mxCell>
        <mxCell id="aBft6ZfbLMWUGfRQ3VPs-15" value="TEBAK ANGKA" style="ellipse;whiteSpace=wrap;html=1;" vertex="1" parent="1">
          <mxGeometry x="304.34" y="400" width="210" height="90" as="geometry" />
        </mxCell>
        <mxCell id="aBft6ZfbLMWUGfRQ3VPs-16" value="Game Tebak Angka" style="text;html=1;strokeColor=none;fillColor=none;align=center;verticalAlign=middle;whiteSpace=wrap;rounded=0;" vertex="1" parent="1">
          <mxGeometry x="230" y="40" width="160" height="50" as="geometry" />
        </mxCell>
        <mxCell id="aBft6ZfbLMWUGfRQ3VPs-17" value="PLAYER1(KOMPUTER)" style="shape=umlActor;verticalLabelPosition=bottom;verticalAlign=top;html=1;outlineConnect=0;fillColor=none;" vertex="1" parent="1">
          <mxGeometry x="90" y="250" width="80" height="132.35" as="geometry" />
        </mxCell>
        <mxCell id="aBft6ZfbLMWUGfRQ3VPs-19" value="" style="endArrow=none;html=1;rounded=0;entryX=0;entryY=1;entryDx=0;entryDy=0;" edge="1" parent="1" target="aBft6ZfbLMWUGfRQ3VPs-10">
          <mxGeometry width="50" height="50" relative="1" as="geometry">
            <mxPoint x="170" y="310" as="sourcePoint" />
            <mxPoint x="390" y="250" as="targetPoint" />
            <Array as="points">
              <mxPoint x="170" y="310" />
              <mxPoint x="240" y="250" />
            </Array>
          </mxGeometry>
        </mxCell>
        <mxCell id="aBft6ZfbLMWUGfRQ3VPs-20" value="" style="endArrow=none;html=1;rounded=0;exitX=1;exitY=0.5;exitDx=0;exitDy=0;" edge="1" parent="1" source="aBft6ZfbLMWUGfRQ3VPs-15" target="aBft6ZfbLMWUGfRQ3VPs-8">
          <mxGeometry width="50" height="50" relative="1" as="geometry">
            <mxPoint x="530.3399999999999" y="413" as="sourcePoint" />
            <mxPoint x="711.3399999999999" y="340" as="targetPoint" />
            <Array as="points">
              <mxPoint x="600" y="440" />
            </Array>
          </mxGeometry>
        </mxCell>
      </root>
    </mxGraphModel>
  </diagram>
</mxfile>
